<svg xmlns="http://www.w3.org/2000/svg" clip-rule="evenodd" fill-rule="evenodd" height="512" image-rendering="optimizeQuality" shape-rendering="geometricPrecision" text-rendering="geometricPrecision" viewBox="0 0 173.397 173.228" width="512"><g id="Layer_x0020_1"><circle cx="86.699" cy="86.614" fill="#f44336" r="84.667"/><path d="m36.534 55.512h100.329c.5215 0 1.0217.0951 1.4846.2684l-51.6486 37.8648-51.5994-37.8833c.4487-.1615.9316-.2499 1.4342-.2499zm103.805 1.8014c.496.6967.7883 1.5472.7883 2.4626v53.6761c0 .9308-.3025 1.7943-.8138 2.4974l-39.9037-29.3631zm-2.0383 60.1515c-.4497.1623-.9336.251-1.4374.251h-100.329c-.5037 0-.9877-.0886-1.4372-.2509l39.9386-29.3889 10.8804 7.9882c.417.3546 1.0373.3908 1.498.0531l10.956-8.0355 39.9308 29.383zm-105.217-1.5153c-.5113-.7032-.814-1.5666-.814-2.4975v-53.6761c0-.9315.303-1.7956.815-2.4991l39.912 29.3027z" fill="#fff"/></g></svg>